<?xml version="1.0" standalone="no"?>
<!DOCTYPE svg PUBLIC "-//W3C//DTD SVG 20010904//EN"
 "http://www.w3.org/TR/2001/REC-SVG-20010904/DTD/svg10.dtd">
<svg version="1.0" xmlns="http://www.w3.org/2000/svg"
 width="912.000000pt" height="1280.000000pt" viewBox="0 0 912.000000 1280.000000"
 preserveAspectRatio="xMidYMid meet">
<metadata>
Created by potrace 1.15, written by Peter Selinger 2001-2017
</metadata>
<g transform="translate(0.000000,1280.000000) scale(0.100000,-0.100000)"
fill="#000000" stroke="none">
<path d="M7244 12790 c-11 -4 -34 -24 -52 -44 -31 -36 -39 -58 -97 -266 -14
-52 -56 -164 -92 -249 -155 -365 -162 -409 -172 -1096 -5 -355 -11 -519 -20
-539 -11 -28 -12 -28 -32 -10 -33 30 -98 174 -123 275 -67 265 -60 565 18 736
40 88 46 145 21 193 -20 39 -61 40 -107 3 -196 -158 -311 -361 -365 -643 -14
-75 -18 -145 -17 -335 0 -320 23 -487 125 -908 l50 -207 -368 -376 -368 -375
-7 313 c-7 323 -6 317 -74 748 -9 58 -17 159 -17 225 -1 140 12 193 79 327 51
101 55 138 19 173 -50 51 -148 19 -224 -71 -74 -89 -146 -285 -190 -514 -11
-58 -38 -231 -61 -384 -77 -526 -95 -576 -438 -1208 -92 -169 -170 -304 -173
-300 -3 4 -16 48 -29 97 -86 343 -209 580 -413 801 -69 74 -143 132 -154 120
-4 -4 -2 -98 5 -209 30 -499 35 -680 23 -739 -47 -222 -335 -567 -477 -571
-32 -1 -43 7 -112 80 -42 45 -152 149 -244 232 -193 175 -258 245 -333 357
-112 166 -174 344 -251 718 -13 66 -27 149 -30 185 -5 62 -3 71 34 146 22 44
84 154 139 245 287 476 425 765 469 982 33 163 -4 411 -86 574 -75 150 -188
261 -337 333 -119 59 -153 53 -153 -28 0 -51 21 -102 78 -195 l37 -61 -1 -205
c-1 -239 -15 -362 -51 -442 -25 -56 -58 -97 -69 -86 -3 3 5 38 17 78 19 64 21
87 16 208 -8 212 -51 369 -157 587 -155 318 -441 647 -563 649 -63 1 -67 -19
-18 -94 54 -83 70 -139 81 -285 19 -244 6 -989 -20 -1084 -20 -74 -63 -64
-109 27 -43 85 -65 165 -115 420 -65 324 -98 422 -166 490 -88 88 -113 44
-149 -258 -55 -459 -67 -714 -37 -830 19 -76 138 -324 227 -472 34 -56 102
-161 152 -232 50 -71 96 -145 103 -165 21 -58 16 -251 -6 -251 -21 0 -301 259
-603 559 -263 260 -310 320 -401 512 -79 166 -126 336 -126 453 0 68 -16 123
-40 136 -10 5 -35 10 -54 10 -34 0 -36 -2 -75 -82 -74 -150 -76 -166 -76 -583
0 -368 0 -371 27 -475 67 -263 159 -447 334 -666 112 -141 257 -241 632 -438
212 -111 284 -157 369 -239 115 -110 247 -335 260 -444 6 -51 5 -52 -23 -59
-41 -11 -462 51 -619 91 -334 83 -513 230 -871 715 -165 222 -235 347 -299
531 -63 183 -99 214 -183 162 -118 -72 -140 -234 -71 -522 96 -402 258 -703
511 -947 219 -212 378 -289 1130 -548 379 -130 415 -144 421 -160 3 -7 -11
-46 -31 -86 -30 -61 -37 -87 -44 -173 -14 -154 -9 -144 -91 -180 -40 -17 -250
-120 -467 -228 -644 -323 -879 -458 -997 -576 -56 -55 -73 -86 -73 -134 0 -36
49 -164 119 -314 29 -60 64 -145 78 -188 29 -91 62 -133 137 -176 60 -34 96
-75 151 -176 21 -38 40 -72 42 -74 10 -12 292 -31 480 -31 225 -1 290 6 418
47 105 33 229 41 312 20 63 -17 177 -68 187 -86 9 -13 -13 -32 -140 -126 -160
-119 -301 -244 -451 -399 -214 -222 -308 -360 -482 -706 -54 -107 -123 -237
-154 -288 -73 -118 -96 -164 -113 -223 -8 -28 -41 -82 -77 -129 -34 -45 -90
-118 -125 -163 -75 -98 -137 -222 -312 -622 -138 -315 -264 -570 -344 -694
-44 -68 -48 -79 -44 -122 3 -26 13 -60 22 -75 17 -24 22 -26 66 -20 128 17
299 103 482 243 31 24 58 43 61 43 2 0 -8 -46 -23 -102 -16 -57 -61 -222 -100
-368 -39 -146 -90 -319 -111 -385 -48 -144 -148 -353 -189 -394 -26 -26 -30
-37 -30 -85 0 -51 2 -56 26 -62 14 -4 69 -4 122 -2 243 13 535 184 718 424 95
124 92 93 -7 -71 -58 -95 -76 -157 -60 -198 10 -27 14 -28 54 -22 166 26 375
93 527 171 113 57 151 84 269 188 208 184 364 386 481 624 25 51 48 92 51 92
4 0 10 -28 13 -62 11 -98 42 -270 101 -563 30 -148 59 -317 65 -375 31 -290
37 -299 148 -215 103 77 215 221 269 345 14 33 28 59 30 56 9 -8 33 -113 43
-186 6 -41 15 -171 21 -289 6 -129 14 -224 22 -240 29 -62 112 -25 253 114
120 119 218 248 326 428 102 172 278 527 319 645 18 52 39 96 47 100 18 6 55
-33 169 -179 131 -168 309 -336 410 -388 72 -36 114 -28 188 38 l38 33 -44 37
c-188 155 -233 212 -258 331 -13 61 -5 78 29 60 12 -7 133 -121 269 -253 247
-242 294 -283 363 -311 39 -17 52 -10 60 29 6 33 55 22 194 -45 181 -86 244
-109 343 -120 233 -27 479 6 692 92 98 39 125 68 115 122 -6 31 -11 36 -35 36
-15 0 -65 -12 -112 -26 -107 -32 -169 -29 -231 14 -118 82 -200 230 -303 543
-83 256 -241 903 -228 937 3 6 11 12 18 12 8 0 21 8 31 17 21 21 16 100 -26
393 -39 272 -72 446 -126 669 -24 101 -44 187 -44 192 0 4 24 9 53 11 l52 3 5
65 c15 184 -22 425 -115 747 -61 210 -65 247 -33 288 26 33 27 66 10 177 -6
42 -19 191 -27 330 -29 467 -63 607 -242 977 -40 84 -72 155 -71 156 2 1 48
13 103 25 55 12 139 37 188 56 330 126 792 454 828 588 18 68 80 137 263 295
254 219 330 315 362 458 22 101 27 103 294 164 404 92 750 264 1140 565 149
115 397 363 479 479 128 183 234 449 215 544 -7 35 -12 36 -58 17 -53 -22
-114 -84 -171 -171 -78 -121 -160 -186 -339 -271 -133 -62 -263 -108 -491
-174 -477 -137 -777 -185 -1238 -196 -224 -5 -240 -4 -222 11 27 21 178 67
560 170 349 94 613 172 715 212 331 130 740 435 935 697 164 221 295 560 311
806 7 106 -5 134 -57 138 -58 5 -111 -44 -209 -190 -103 -154 -173 -240 -254
-311 -241 -211 -500 -331 -923 -426 -201 -45 -223 -48 -223 -26 0 9 78 95 173
193 211 217 322 349 432 512 133 199 216 379 262 571 27 114 24 365 -5 484
-47 190 -172 441 -268 540 -48 50 -78 57 -115 26 -34 -28 -31 -82 15 -226 33
-104 38 -129 33 -185 -10 -126 -101 -352 -219 -545 -69 -112 -217 -315 -230
-315 -3 0 -8 82 -12 183 -14 387 -23 462 -120 1022 -31 181 -53 371 -66 566
-13 207 -21 226 -86 199z m-51 -552 c67 -161 161 -703 174 -1007 10 -247 -37
-683 -87 -812 -11 -26 -16 -49 -13 -53 13 -13 74 33 176 133 285 278 483 593
637 1014 l43 118 23 -34 c50 -74 59 -127 59 -337 -1 -170 -4 -207 -24 -290
-73 -296 -146 -399 -638 -901 -273 -280 -451 -480 -524 -587 -45 -68 -61 -112
-40 -112 11 0 65 37 132 90 106 84 242 136 414 160 111 15 158 26 332 76 398
114 630 226 788 381 84 82 222 259 253 325 29 60 56 74 83 42 17 -20 3 -73
-56 -214 -140 -330 -415 -645 -765 -877 -241 -160 -431 -230 -1035 -383 -548
-139 -689 -183 -880 -275 -263 -126 -494 -321 -499 -418 -1 -31 1 -32 35 -31
27 1 62 17 130 63 52 34 129 75 172 92 153 59 432 113 717 139 150 14 332 10
337 -7 8 -23 -236 -177 -385 -242 -184 -81 -520 -142 -1182 -216 -530 -59
-646 -83 -735 -151 -95 -72 -141 -136 -257 -355 -171 -327 -216 -379 -327
-379 -72 0 -195 26 -257 54 -120 55 -218 192 -218 306 -1 68 23 119 174 386
188 330 196 355 186 583 -4 86 -13 219 -20 296 -13 137 -13 167 0 129 4 -10
56 -136 117 -279 198 -470 231 -582 225 -765 -4 -154 9 -153 82 6 70 154 135
273 276 504 294 485 362 639 424 962 77 404 93 480 122 593 17 66 34 126 38
134 14 27 51 -309 70 -649 18 -307 -2 -529 -65 -730 -35 -113 -41 -170 -18
-177 6 -2 47 27 90 65 94 83 609 604 890 901 l202 213 -34 67 c-129 257 -214
813 -185 1214 17 237 35 332 72 369 18 18 22 19 36 5 12 -13 17 -56 23 -207
14 -333 73 -544 187 -671 76 -84 242 -150 256 -101 6 24 14 199 31 717 21 625
38 775 115 987 31 85 80 168 100 168 5 0 16 -15 23 -32z m-5003 -555 c144
-162 270 -418 301 -614 17 -109 6 -263 -32 -453 -25 -123 -31 -171 -23 -183
16 -26 56 -52 89 -59 41 -8 109 39 164 113 131 176 188 407 175 706 -4 88 -3
157 2 157 18 0 65 -37 90 -71 72 -94 118 -252 117 -404 -2 -250 -111 -518
-389 -955 -144 -225 -215 -346 -240 -410 -22 -54 -15 -256 16 -478 40 -289 91
-428 225 -617 77 -109 163 -206 403 -458 130 -137 238 -252 240 -256 1 -4
-125 -44 -280 -89 -156 -46 -372 -110 -480 -144 l-197 -61 -78 45 c-146 85
-237 119 -843 317 -283 92 -428 150 -541 218 -185 110 -418 381 -538 627 -96
196 -228 616 -194 616 5 0 26 -32 47 -71 206 -381 707 -939 955 -1063 83 -42
298 -90 643 -146 239 -38 354 -64 431 -96 59 -25 132 -34 155 -20 26 16 12 60
-32 101 -36 33 -48 55 -71 125 -78 241 -171 413 -293 541 -103 109 -203 177
-457 314 -228 123 -316 179 -431 276 -211 179 -346 411 -432 744 -72 276 -105
605 -62 605 5 0 32 -48 61 -107 129 -273 288 -458 794 -924 286 -264 440 -390
541 -444 54 -29 124 -34 144 -10 17 20 5 33 -94 105 -88 64 -82 40 -65 282 6
87 8 174 5 193 -4 20 -47 95 -98 171 -135 203 -241 381 -326 554 l-77 154 0
234 0 234 29 24 c16 14 38 24 50 22 23 -3 29 -21 81 -208 40 -147 75 -213 154
-290 95 -94 213 -148 255 -117 19 14 20 37 23 578 3 579 9 749 23 749 5 0 32
-26 60 -57z m6541 -2731 c-22 -75 -128 -203 -261 -314 -304 -255 -771 -501
-1129 -594 -120 -31 -151 -31 -151 -2 0 37 36 99 110 188 51 61 70 92 70 113
0 16 -18 67 -40 114 -22 47 -40 87 -40 89 0 1 35 10 78 19 319 69 607 148 904
251 106 36 249 84 317 107 93 30 125 45 129 59 2 11 8 16 13 11 5 -5 5 -23 0
-41z m-2271 -884 c0 -27 -269 -260 -395 -343 -189 -124 -514 -262 -837 -355
-299 -87 -447 -180 -514 -324 -60 -128 -14 -225 141 -304 166 -83 359 -128
478 -112 124 18 354 104 415 154 38 33 41 58 7 91 -23 24 -29 25 -163 25 -76
0 -153 5 -171 11 -56 20 -67 69 -26 117 33 40 103 57 196 48 38 -4 78 -4 89
-1 44 14 12 91 -49 118 -42 19 -95 72 -86 87 3 5 36 18 73 30 186 62 495 246
847 505 219 162 327 227 398 240 32 6 37 5 37 -11 0 -36 -48 -119 -91 -160
-24 -23 -80 -67 -124 -99 -138 -100 -168 -138 -133 -173 18 -18 34 -15 77 13
51 32 87 40 106 25 62 -52 -71 -223 -294 -378 -69 -48 -149 -109 -178 -136
-52 -47 -54 -50 -48 -90 9 -61 -22 -101 -120 -154 -61 -32 -85 -51 -102 -81
-33 -58 -182 -173 -298 -231 -114 -56 -234 -97 -382 -130 l-103 -23 -107 32
c-167 51 -301 106 -389 161 -104 63 -157 78 -216 61 -67 -20 -148 -63 -169
-89 -40 -51 8 -55 136 -12 98 33 108 32 173 -12 24 -17 91 -52 150 -80 59 -27
130 -61 158 -74 48 -23 74 -54 74 -90 0 -27 37 -88 99 -164 109 -133 212 -372
247 -574 21 -120 31 -529 15 -602 -16 -70 -31 -82 -73 -56 -50 31 -82 70 -123
150 -42 80 -130 182 -158 182 -16 0 -17 -22 -17 -272 0 -289 -11 -402 -51
-548 -28 -99 -96 -241 -152 -315 -64 -84 -152 -169 -170 -162 -19 7 -45 134
-57 281 -11 131 -6 207 18 248 15 26 15 29 -8 53 -30 31 -51 32 -88 1 -42 -36
-82 -118 -155 -317 -87 -235 -120 -311 -172 -394 -41 -66 -172 -205 -193 -205
-14 0 -20 29 -38 195 -41 388 -44 401 -94 388 -29 -8 -37 -21 -60 -108 -30
-113 -53 -159 -115 -235 -49 -60 -376 -380 -388 -380 -2 0 -15 24 -28 53 -48
111 -33 343 30 442 34 54 39 75 15 75 -54 0 -135 -78 -277 -270 -72 -96 -176
-236 -231 -310 -105 -141 -182 -230 -199 -230 -14 0 -2 169 18 245 8 33 60
151 115 263 55 111 100 211 100 222 0 17 -7 20 -50 20 -35 0 -55 -5 -68 -18
-10 -10 -58 -95 -107 -188 -146 -280 -254 -433 -337 -475 -47 -24 -48 -15 -4
64 19 34 37 78 41 97 4 19 36 104 71 187 35 84 64 157 64 163 0 5 -7 10 -15
10 -32 0 -111 -90 -203 -230 -144 -218 -287 -352 -441 -411 -63 -23 -66 -19
-59 79 7 92 45 194 117 313 34 55 59 104 56 108 -2 5 -29 27 -59 51 l-56 42
-117 -110 c-195 -182 -238 -211 -335 -219 -72 -7 -77 2 -49 94 96 316 541 920
876 1190 103 82 292 178 395 199 74 15 122 41 208 110 l33 27 162 -51 c167
-53 309 -89 362 -92 65 -4 72 -1 88 38 32 80 54 78 217 -20 l101 -61 101 27
c310 84 494 180 654 340 186 187 263 363 293 670 21 217 9 366 -30 374 -27 5
-39 -49 -60 -268 -10 -113 -22 -221 -25 -240 -55 -322 -324 -590 -729 -725
-121 -41 -173 -34 -359 44 -180 76 -207 82 -230 50 -9 -13 -16 -43 -16 -66 0
-58 -17 -66 -108 -47 -40 8 -116 31 -169 51 -95 34 -127 44 -185 57 -16 4 -28
13 -28 20 0 28 -31 46 -76 46 -48 0 -57 -7 -129 -96 -28 -35 -31 -36 -81 -31
-56 6 -151 49 -253 115 -35 23 -91 52 -123 63 -32 12 -58 27 -58 34 0 7 7 29
15 48 40 97 -14 159 -108 124 -60 -23 -236 -35 -687 -48 -518 -15 -568 -8
-605 84 -10 23 -19 78 -22 122 -5 75 -3 82 23 122 16 23 64 69 107 103 85 67
120 118 97 145 -15 18 -62 20 -93 4 -12 -7 -52 -41 -90 -76 -59 -57 -71 -64
-95 -58 -72 18 -102 56 -102 129 0 37 83 108 240 206 583 365 1266 710 1441
728 42 4 50 1 85 -31 45 -41 109 -141 101 -160 -3 -7 -59 -30 -125 -50 -130
-40 -175 -67 -170 -101 5 -36 54 -32 156 13 50 21 105 42 122 46 56 12 105
-42 67 -74 -8 -6 -63 -29 -123 -52 -406 -152 -939 -413 -1044 -511 -29 -26
-32 -33 -17 -36 27 -5 77 14 287 111 388 178 504 227 750 313 85 30 181 68
214 84 33 17 63 30 67 30 4 0 28 -42 55 -92 79 -155 190 -247 332 -277 107
-22 173 -11 298 52 72 37 148 101 141 120 -9 27 -84 19 -174 -19 -77 -33 -98
-38 -173 -38 -72 -1 -94 3 -143 26 -70 33 -146 109 -182 182 -35 71 -31 102
10 98 17 -2 110 -5 207 -8 206 -7 238 -2 386 62 59 25 129 48 155 51 31 4 51
12 55 21 9 24 -75 176 -125 226 -56 55 -150 102 -245 122 -87 19 -148 11 -332
-41 -153 -43 -238 -59 -271 -51 -36 9 -33 43 16 155 50 116 49 136 -5 135 -34
-1 -46 -8 -78 -45 -21 -24 -54 -62 -73 -83 l-35 -39 -70 6 c-84 7 -121 23
-134 58 -18 51 -1 78 67 109 54 24 402 136 762 245 246 75 599 147 616 127 3
-4 16 -52 28 -107 50 -232 147 -348 336 -404 64 -19 93 -22 174 -19 134 6 194
32 287 123 61 60 79 86 124 180 157 329 161 337 211 387 100 100 223 132 679
178 358 35 573 61 726 85 175 27 234 30 234 13z m-4776 -2748 c60 -6 95 -15
108 -26 18 -17 17 -19 -29 -66 -27 -28 -63 -52 -83 -58 -75 -21 -561 -2 -625
24 -35 15 -70 67 -61 91 17 45 400 64 690 35z m3512 -452 c163 -174 272 -414
323 -715 65 -387 31 -416 -218 -189 -51 48 -97 86 -102 86 -19 0 -21 -32 -5
-73 9 -24 46 -79 82 -122 37 -44 72 -93 79 -110 27 -63 36 -81 59 -112 42 -57
108 -269 156 -504 32 -154 63 -413 58 -482 l-3 -42 -56 70 c-69 85 -126 171
-254 380 -53 88 -102 165 -108 170 -24 24 11 -62 110 -269 256 -537 332 -750
473 -1321 38 -154 85 -327 105 -385 51 -149 143 -331 218 -431 112 -149 111
-159 -12 -159 -193 0 -337 32 -496 111 -292 144 -568 400 -654 605 -66 156
-83 249 -88 469 -6 219 -12 253 -38 192 -54 -130 -38 -429 41 -729 14 -53 24
-105 22 -114 -9 -46 -259 266 -412 514 -92 149 -114 173 -147 165 -33 -9 -33
-30 -1 -80 39 -61 68 -135 87 -221 45 -203 79 -492 58 -492 -31 0 -173 201
-249 353 -99 195 -151 370 -184 618 -11 82 -24 158 -30 169 -12 23 -130 64
-144 50 -12 -12 8 -262 35 -430 53 -331 57 -429 22 -570 -18 -76 -103 -264
-113 -253 -11 12 -108 418 -120 498 -5 39 -10 153 -10 255 0 203 -6 259 -27
267 -17 7 -49 -22 -72 -62 -28 -51 -22 -337 12 -555 58 -369 67 -437 67 -515
0 -97 -20 -180 -61 -252 -54 -95 -257 -343 -280 -343 -4 0 -8 49 -8 108 1 135
-8 181 -82 462 -32 124 -75 299 -94 390 -43 201 -65 242 -99 187 -18 -28 -21
-51 -46 -292 -23 -230 -33 -273 -102 -410 -57 -113 -86 -158 -98 -150 -4 3
-14 38 -20 78 -6 39 -36 196 -65 347 -73 377 -88 504 -83 704 5 137 10 179 37
286 35 142 38 168 14 177 -35 14 -237 -251 -279 -365 -37 -102 -88 -211 -146
-311 -73 -128 -224 -358 -302 -461 -62 -82 -178 -205 -207 -221 -64 -34 34
256 177 528 71 134 86 196 49 201 -24 3 -69 -67 -195 -308 -146 -278 -197
-357 -295 -455 -82 -83 -158 -136 -172 -121 -4 3 8 36 25 73 37 80 48 156 62
428 13 259 13 388 -2 403 -18 18 -35 15 -61 -14 -28 -30 -56 -99 -122 -304
-86 -267 -187 -424 -340 -525 -91 -61 -308 -175 -331 -175 -8 0 -14 6 -14 13
0 6 34 111 76 232 41 121 107 324 145 450 189 616 268 859 309 952 27 60 37
137 20 148 -17 11 -31 -7 -101 -130 -104 -186 -227 -332 -357 -428 -61 -45
-187 -105 -198 -94 -3 3 19 67 51 141 31 75 96 243 144 374 163 438 239 584
431 818 40 49 93 119 116 155 53 81 58 85 119 99 56 12 150 45 243 84 34 14
67 26 73 26 9 0 10 -29 6 -112 -24 -413 -29 -384 60 -375 71 7 199 69 503 244
288 165 308 176 319 168 5 -3 12 -40 16 -83 10 -116 21 -151 51 -158 71 -18
188 98 320 319 111 184 223 322 244 301 6 -6 15 -75 21 -155 5 -79 14 -167 20
-196 11 -57 41 -103 68 -103 9 0 66 52 125 116 121 129 289 284 381 352 l59
44 17 -21 c10 -12 30 -58 45 -104 53 -162 89 -227 125 -227 64 0 229 235 410
584 71 139 89 165 93 145 3 -13 13 -64 22 -114 9 -49 26 -117 37 -150 27 -75
48 -80 139 -34 98 50 182 141 244 269 98 200 149 375 189 659 17 120 23 141
35 141 4 0 29 -24 56 -52z"/>
</g>
</svg>
